<?xml version="1.0" standalone="no"?>
<!DOCTYPE svg PUBLIC "-//W3C//DTD SVG 20010904//EN"
 "http://www.w3.org/TR/2001/REC-SVG-20010904/DTD/svg10.dtd">
<svg version="1.0" xmlns="http://www.w3.org/2000/svg"
 width="392.000000pt" height="390.000000pt" viewBox="0 0 392.000000 390.000000"
 preserveAspectRatio="xMidYMid meet">

<g transform="translate(0.000000,390.000000) scale(0.100000,-0.100000)"
fill="#000000" stroke="none">
<path d="M70 3430 l0 -400 394 0 393 0 7 53 c8 67 8 710 0 731 -5 14 -50 16
-400 16 l-394 0 0 -400z m680 0 l0 -290 -282 2 -283 3 -3 288 -2 287 285 0
285 0 0 -290z"/>
<path d="M295 3591 c-3 -5 -3 -81 -1 -168 l4 -158 171 -3 171 -2 0 170 0 170
-169 0 c-94 0 -172 -4 -176 -9z"/>
<path d="M980 3775 l0 -55 54 0 54 0 4 -56 c1 -31 1 -58 -1 -60 -2 -2 -28 -4
-58 -4 l-53 0 0 -170 0 -170 55 0 55 0 0 55 0 55 115 0 115 0 0 -55 0 -55 -55
0 -55 0 0 -285 0 -285 -60 0 -60 0 0 115 0 115 -55 0 -55 0 0 -60 0 -60 -54 0
c-61 0 -66 6 -66 76 l0 45 -52 -3 -53 -3 0 -55 0 -55 55 -5 55 -5 3 -52 3 -52
-58 -3 -58 -3 -3 -57 -3 -58 -169 0 -170 0 0 60 0 60 -61 0 -61 0 2 -47 c4
-75 5 -73 -55 -73 l-55 0 0 -55 0 -55 115 0 114 0 3 -57 3 -58 53 -3 52 -3 0
60 0 61 60 0 60 0 0 -60 0 -61 111 3 111 3 2 58 1 57 -57 0 -58 0 0 55 0 55
115 0 115 0 0 60 0 60 55 0 55 0 2 -100 c0 -55 1 -106 2 -112 1 -9 -18 -14
-56 -16 l-58 -3 0 -59 0 -60 -54 0 -55 0 -3 -52 -3 -53 -58 -3 -58 -3 3 -56 3
-55 110 -2 110 -1 3 -112 3 -112 112 -3 112 -3 3 -57 3 -58 -61 0 -60 0 0 -55
0 -55 -110 0 c-109 0 -110 0 -116 25 -3 14 -4 39 -2 55 l5 30 -59 0 -59 0 3
58 3 57 53 3 c56 3 54 0 56 74 l1 38 -227 0 -228 0 0 -55 0 -55 55 0 55 0 0
-115 0 -115 60 0 60 0 0 55 0 55 55 0 55 0 0 -55 0 -55 55 0 c49 0 55 -2 61
-24 3 -13 4 -38 2 -57 l-3 -34 -285 -5 -285 -5 0 -110 0 -110 57 -3 58 -3 0
-54 0 -55 55 0 55 0 0 55 0 55 60 0 60 0 0 -110 0 -110 55 0 55 0 0 -60 0 -60
115 0 115 0 0 -55 0 -55 55 0 55 0 2 -173 3 -172 58 -3 57 -3 0 -54 0 -55 -60
0 -60 0 0 54 0 54 -47 4 c-27 3 -51 3 -55 1 -5 -2 -8 -105 -8 -229 l0 -224 55
0 54 0 3 113 3 112 170 0 170 0 0 -55 0 -55 -112 -3 -113 -3 0 -54 0 -55 225
0 225 0 0 55 0 55 -55 0 -55 0 0 115 0 115 55 0 55 0 0 55 c0 37 -4 55 -12 56
-7 1 -51 3 -98 4 -47 1 -93 3 -103 4 -16 1 -18 9 -16 54 l3 52 -57 3 -57 3 0
115 0 115 58 -3 57 -3 3 -113 3 -112 109 0 110 0 0 55 0 55 -55 0 -55 0 0 60
0 61 57 -3 58 -3 0 -55 0 -55 58 -3 57 -3 0 61 0 60 55 0 54 0 3 -57 3 -58 58
-3 57 -3 0 -114 0 -115 114 0 115 0 -6 -55 -6 -55 62 0 61 0 0 55 0 55 115 0
115 0 0 -55 0 -54 -57 -3 -58 -3 -3 -52 -3 -53 60 0 61 0 0 55 0 55 55 0 55 0
0 -115 0 -115 -54 0 c-30 0 -56 -5 -58 -10 -2 -6 -2 -31 0 -55 l4 -45 54 0 54
0 0 55 0 55 55 0 55 0 0 -55 0 -55 60 0 60 0 0 55 0 55 -60 0 -61 0 3 58 3 57
55 1 55 1 3 56 3 57 -116 0 -115 0 0 55 0 55 138 1 c75 1 151 2 167 3 l30 1 3
-173 2 -172 60 0 60 0 0 -55 0 -55 285 0 284 0 0 55 -1 55 -284 0 -284 0 0 61
0 61 53 -4 52 -3 3 57 3 58 114 0 114 0 3 -57 3 -58 50 0 50 0 3 58 3 57 115
0 115 0 -3 57 -3 57 -52 -3 -53 -2 0 60 0 61 55 0 55 0 0 55 0 55 -55 0 -55 0
0 60 0 60 55 0 55 0 0 55 0 56 -57 -3 -58 -3 3 -52 4 -53 -116 0 -116 0 0 55
0 55 55 0 55 0 0 60 0 60 60 0 60 0 0 55 0 55 55 0 56 0 -3 57 -3 57 -50 0
-50 0 -3 -57 -3 -57 -227 -2 -227 -3 -3 -52 -3 -53 -115 0 -114 0 0 55 0 55
60 0 60 0 0 55 c0 60 -5 56 80 60 23 1 25 5 28 58 l3 57 54 0 55 0 0 55 0 54
58 3 57 3 3 58 3 58 -58 -3 -58 -3 -3 -57 -3 -58 -54 0 -55 0 0 -55 0 -55 -55
0 -55 0 0 -54 c0 -59 -10 -69 -68 -66 -51 4 -52 3 -52 -55 l0 -55 -55 0 -55 0
0 -55 0 -55 -55 0 -54 0 -3 -57 -3 -58 -112 -3 -112 -3 -3 58 -3 58 -55 0 -55
0 -3 -113 -3 -112 -115 0 -115 0 3 113 3 112 58 3 57 3 0 54 0 55 -115 0 -115
0 0 55 c0 50 2 55 23 56 12 0 88 0 170 -1 l147 -1 0 60 0 61 -170 0 -170 0 0
54 0 55 -105 3 c-58 2 -110 2 -115 0 -6 -2 -10 -28 -10 -58 l0 -54 -55 0 -55
0 0 55 0 55 -115 0 -116 0 3 -112 3 -113 53 -3 52 -3 0 -55 0 -54 -225 0 -225
0 0 55 0 55 55 0 55 0 0 60 0 60 -55 0 -55 0 0 170 0 170 55 0 55 0 0 115 0
115 60 0 60 0 0 -55 0 -55 55 0 55 0 0 55 0 54 -57 3 -58 3 -3 113 -3 112 61
0 60 0 0 115 0 115 55 0 55 0 0 55 0 55 -55 0 -55 0 0 115 0 115 55 0 55 0 0
55 c0 54 0 54 34 60 18 4 44 5 57 3 24 -3 24 -3 27 110 l3 112 -61 0 -60 0 0
60 0 60 170 0 170 0 1 25 c1 14 2 39 3 55 l1 30 -57 0 -58 0 0 60 0 60 58 0
58 0 -3 55 -2 55 59 0 60 0 2 -167 3 -168 53 -3 52 -3 0 115 0 116 60 0 60 0
0 -60 0 -60 115 0 116 0 -3 58 -3 57 -112 3 -113 3 0 54 0 55 55 0 54 0 3 58
3 57 58 3 58 3 -3 52 -3 52 -57 3 -58 3 0 -56 0 -55 -55 0 -55 0 0 55 0 55
-171 -2 -171 -3 -1 -110 -2 -110 -57 -3 -58 -3 0 116 0 115 -55 0 -55 0 0 -53
c0 -30 -2 -56 -4 -58 -2 -2 -29 -2 -60 -1 l-56 4 0 54 0 54 -110 0 -110 0 0
-53 c0 -30 -2 -56 -4 -58 -2 -2 -29 -2 -60 -1 l-56 4 0 54 0 54 -55 0 -55 0 0
-55 0 -55 -60 0 -60 0 0 55 0 55 -55 0 -55 0 0 -55z m685 -115 l0 -55 58 -3
57 -3 0 -114 0 -115 -115 0 -115 0 0 60 0 60 -55 0 -55 0 0 -60 0 -60 -60 0
-60 0 0 115 0 115 115 0 115 0 0 53 c0 30 3 57 7 61 4 4 30 6 58 4 l50 -3 0
-55z m685 0 l0 -60 -60 0 -60 0 0 53 c0 30 3 57 7 60 3 4 30 7 60 7 l53 0 0
-60z m-800 -460 l0 -60 54 0 c34 0 55 -5 58 -12 2 -7 2 -57 0 -110 l-4 -98
-54 0 -54 0 0 110 0 110 -54 0 c-30 0 -57 3 -59 8 -2 4 -2 31 1 60 l4 52 54 0
54 0 0 -60z m-110 -168 c0 -60 -2 -111 -4 -113 -2 -2 -29 -2 -60 -1 l-56 4 0
109 0 109 60 0 60 0 0 -108z m0 -287 l0 -55 -60 0 -60 0 0 55 0 55 60 0 60 0
0 -55z m110 -230 l0 -55 -55 0 -54 0 -3 -57 -3 -58 -55 0 -55 0 -3 113 -3 112
116 0 115 0 0 -55z m-230 -230 l0 -55 -55 0 -55 0 0 55 0 55 55 0 55 0 0 -55z
m-228 -65 c2 -6 2 -31 0 -55 l-4 -45 -54 0 -54 0 0 55 0 55 54 0 c30 0 56 -5
58 -10z m116 -163 l3 -57 -61 0 -60 0 0 54 0 55 43 4 c73 7 72 7 75 -56z
m-116 -569 l3 -53 58 -3 57 -3 0 -60 0 -61 -57 4 -58 3 -2 -110 -1 -110 -171
-3 -171 -2 0 55 0 55 115 0 115 0 0 170 0 170 54 0 55 0 3 -52z m-572 -118 l0
-60 -39 0 c-65 0 -71 6 -71 66 l0 54 55 0 55 0 0 -60z m345 0 l0 -55 -110 0
-110 0 -3 58 -3 58 113 -3 113 -3 0 -55z m1143 -57 l3 -113 -61 0 -60 0 0
-115 0 -115 60 0 60 0 0 -55 0 -55 -60 0 -60 0 0 55 0 55 -170 0 -170 0 0 -55
0 -55 -60 0 -61 0 3 113 3 112 113 3 112 3 0 54 0 55 60 0 60 0 0 55 0 55 55
0 55 0 0 60 0 61 58 -3 57 -3 3 -112z m-688 -338 l0 -115 -115 0 -115 0 0 55
0 55 60 0 60 0 0 60 0 60 55 0 55 0 0 -115z m2170 55 l0 -60 -60 0 -60 0 0 60
0 60 60 0 60 0 0 -60z m-230 -230 l0 -170 -170 0 -170 0 0 170 0 170 170 0
170 0 0 -170z m-1024 36 c3 -13 4 -63 2 -112 l-3 -89 -57 -3 -58 -3 0 55 0 55
-57 3 c-58 3 -58 3 -61 37 -2 19 -1 44 2 57 6 23 9 24 116 24 107 0 110 -1
116 -24z m342 -93 l3 -113 54 0 55 0 0 115 0 116 55 -3 56 -3 2 -110 2 -110
-57 -3 -58 -3 0 -59 0 -60 -55 0 -55 0 0 60 0 60 -115 0 -115 0 0 55 0 55 55
0 55 0 0 60 0 61 58 -3 57 -3 3 -112z m910 -55 l-3 -173 -55 0 -55 0 -3 160
c-1 87 0 165 2 172 4 8 25 13 61 13 l55 0 -2 -172z m-228 -228 l0 -60 -55 0
-55 0 0 54 0 55 43 4 c23 2 48 4 55 5 8 1 12 -16 12 -58z m-1820 -5 l0 -55
-60 0 -60 0 0 55 0 55 60 0 60 0 0 -55z"/>
<path d="M3030 800 l0 -61 58 3 57 3 0 55 0 55 -57 3 -58 3 0 -61z"/>
<path d="M2690 3773 l0 -58 55 0 55 0 0 58 0 57 -55 0 -55 0 0 -57z"/>
<path d="M3030 3430 l0 -400 400 0 400 0 0 400 0 400 -400 0 -400 0 0 -400z
m688 3 l-3 -288 -282 -3 -283 -2 0 290 0 290 285 0 285 0 -2 -287z"/>
<path d="M3262 3433 l3 -168 168 -3 167 -2 0 170 0 170 -170 0 -170 0 2 -167z"/>
<path d="M2580 3545 l0 -55 55 0 55 0 0 -176 0 -175 -52 2 -53 3 -3 -57 -3
-57 56 0 55 0 0 -55 0 -55 -55 0 -55 0 0 -60 0 -60 55 0 55 0 0 55 c0 50 2 55
25 61 14 3 39 4 55 0 l30 -5 0 59 0 60 60 0 60 0 0 115 0 115 -60 0 -60 0 0
55 0 55 60 0 60 0 0 115 0 115 -61 0 -61 0 2 -42 c3 -70 4 -68 -55 -68 l-55 0
0 55 0 55 -55 0 -55 0 0 -55z m220 -455 l0 -60 -55 0 -55 0 0 54 0 55 48 4
c26 2 50 4 55 5 4 1 7 -25 7 -58z"/>
<path d="M993 3143 c-8 -3 -13 -24 -13 -59 l0 -54 55 0 55 0 0 58 0 57 -43 1
c-23 1 -48 -1 -54 -3z"/>
<path d="M1897 3144 c-4 -4 -7 -83 -7 -176 l0 -168 -55 0 -55 0 0 -55 0 -55
55 0 55 0 0 55 0 55 60 0 61 0 -3 -112 -3 -113 -57 -3 -58 -3 0 -54 0 -55 -55
0 -55 0 0 -60 0 -60 225 0 225 0 0 60 0 60 60 0 60 0 0 55 0 55 55 0 55 0 0
-115 0 -115 -55 0 -55 0 0 -115 0 -115 33 0 c77 0 77 0 77 121 l0 108 58 3 57
3 0 170 0 170 -112 3 -113 3 0 -61 0 -60 -115 0 -115 0 0 60 0 60 55 0 55 0 0
55 0 55 60 0 59 0 3 58 3 57 50 1 50 1 0 113 0 113 -42 -1 c-24 0 -47 -1 -53
-1 -5 -1 -10 -26 -10 -56 l0 -55 -60 0 -60 0 0 54 0 54 -42 4 c-63 7 -68 3
-68 -59 l0 -54 -57 3 -58 3 0 53 0 52 -37 0 c-20 0 -43 2 -50 5 -8 3 -17 2
-21 -1z m335 -229 l0 -110 -56 -3 -56 -3 0 116 0 116 56 -3 56 -3 0 -110z"/>
<path d="M77 2913 c-4 -3 -7 -30 -7 -60 l0 -53 55 0 55 0 0 -55 0 -56 58 3 57
3 -3 53 -4 52 116 0 116 0 0 -55 0 -55 60 0 60 0 0 55 0 55 -60 0 -60 0 0 60
0 60 -218 0 c-120 0 -222 -3 -225 -7z"/>
<path d="M2927 2913 c-4 -3 -7 -30 -7 -60 l0 -53 -61 0 c-51 0 -60 -3 -58 -17
1 -10 1 -35 0 -55 l-1 -38 -55 0 -55 0 0 -60 0 -60 55 0 54 0 3 58 3 57 58 3
57 3 0 54 0 55 55 0 55 0 0 60 0 60 -48 0 c-27 0 -52 -3 -55 -7z"/>
<path d="M3267 2913 c-4 -3 -7 -30 -7 -60 l0 -53 -54 0 -55 0 -3 -52 -3 -53
-57 -3 -58 -3 0 -59 0 -60 -55 0 -55 0 0 -55 0 -54 -57 -3 -58 -3 -3 -57 -3
-58 -54 0 -55 0 0 -55 0 -55 -55 0 -55 0 0 -55 0 -55 -60 0 -60 0 0 -60 0 -60
-55 0 -55 0 0 -55 0 -55 55 0 55 0 0 55 0 55 60 0 60 0 0 61 0 61 53 -4 52 -3
3 58 3 57 54 0 55 0 0 55 0 55 60 0 60 0 0 60 0 60 55 0 55 0 0 55 0 54 58 3
57 3 3 58 3 57 109 0 110 0 0 55 0 55 60 0 60 0 0 -55 0 -54 -57 -3 -58 -3 0
-55 0 -55 58 -3 57 -3 0 61 0 60 55 0 55 0 0 -115 0 -115 -55 0 -54 0 -3 -57
-3 -58 -55 -5 -55 -5 -3 -52 -3 -53 115 0 116 0 0 -55 c0 -59 -3 -57 65 -57
19 0 40 1 45 1 6 1 10 26 10 56 l0 55 55 0 55 0 0 55 0 55 -55 0 -55 0 0 -55
0 -55 -60 0 -60 0 0 115 0 115 60 0 60 0 0 54 0 55 53 3 52 3 0 55 0 55 -112
3 -113 3 0 114 0 115 -163 0 c-90 0 -167 -3 -170 -7z"/>
<path d="M3727 2913 c-3 -5 -7 -31 -8 -58 l-3 -50 57 -3 58 -3 -3 58 -3 58
-47 3 c-25 2 -48 -1 -51 -5z"/>
<path d="M3260 2455 l0 -115 -115 0 -115 0 0 -55 0 -55 -55 0 -55 0 0 -55 c0
-45 -3 -55 -17 -56 -10 0 -36 -1 -58 -2 l-40 -2 0 -55 0 -55 -57 -3 -58 -3 0
-54 0 -55 -55 0 -54 0 -3 -57 -3 -58 -57 -3 -58 -3 0 -54 0 -55 -55 0 -55 0 0
-60 0 -60 55 0 55 0 0 60 0 60 115 0 115 0 0 115 0 115 115 0 115 0 0 -60 0
-59 -57 -3 -58 -3 0 -110 0 -110 58 -3 57 -3 0 -54 0 -55 -55 0 c-53 0 -55 -1
-56 -27 -2 -29 -2 -72 0 -86 1 -4 25 -7 54 -5 l52 3 3 58 3 57 54 0 55 0 0 55
0 54 58 3 57 3 3 58 3 57 54 0 55 0 0 55 0 55 55 0 55 0 0 60 0 60 60 0 60 0
0 55 0 55 55 0 55 0 0 -115 0 -115 60 0 60 0 0 60 0 60 55 0 55 0 0 55 0 55
-115 0 -115 0 0 59 0 59 -52 -1 -53 -2 -3 -58 -3 -57 -54 0 c-60 0 -69 -11
-63 -73 3 -32 3 -32 -50 -37 -29 -3 -55 -4 -58 -1 -2 2 -4 28 -4 58 l0 53 55
0 55 0 0 59 0 59 -110 1 -110 2 0 -61 0 -60 -60 0 -60 0 0 -55 0 -55 -55 0
-55 0 0 116 0 116 53 -4 52 -3 3 58 3 57 114 0 115 0 0 55 0 55 55 0 55 0 0
115 0 115 -55 0 -55 0 0 -115z m-112 -682 l3 -113 -61 0 -60 0 0 -60 0 -60
-55 0 -55 0 0 115 0 115 55 0 55 0 0 60 0 61 58 -3 57 -3 3 -112z"/>
<path d="M73 2334 c-2 -6 -2 -57 -1 -115 l3 -104 50 0 50 -1 3 -57 3 -57 -56
0 -55 0 0 -230 0 -230 55 0 55 0 0 60 0 60 115 0 116 0 -3 113 -3 112 -54 5
-54 5 -1 110 -1 110 -57 3 -58 3 0 54 0 54 57 3 58 3 1 52 2 52 -111 3 c-71 2
-111 -1 -114 -8z"/>
<path d="M1850 2013 c0 -14 12 -22 45 -31 47 -12 56 -25 30 -40 -10 -5 -13
-15 -9 -25 8 -22 20 -22 33 1 10 16 12 16 26 -2 8 -11 15 -30 15 -43 0 -18 6
-23 24 -23 23 0 24 2 14 38 -5 20 -17 45 -25 54 -14 15 -13 19 12 42 26 24 27
46 3 46 -7 0 -22 -9 -34 -21 -20 -19 -24 -19 -46 -6 -12 8 -38 18 -55 22 -28
6 -33 4 -33 -12z"/>
<path d="M1867 1884 c-14 -15 -6 -34 14 -34 14 0 19 5 17 17 -3 18 -20 27 -31
17z"/>
<path d="M1322 1603 l3 -58 52 -3 51 -3 4 61 3 60 -58 0 -58 0 3 -57z"/>
<path d="M3718 1603 l-3 -58 -57 -3 -58 -3 0 -54 0 -55 -110 0 c-107 0 -110
-1 -116 -24 -3 -13 -4 -38 -2 -56 l3 -33 113 -1 112 -1 0 58 0 57 60 0 60 0 0
55 0 55 55 0 55 0 0 60 0 60 -55 0 -54 0 -3 -57z"/>
<path d="M2582 1428 l3 -113 53 -3 52 -3 0 115 0 116 -55 0 -56 0 3 -112z"/>
<path d="M72 1373 l3 -58 50 0 50 0 3 58 3 57 -56 0 -56 0 3 -57z"/>
<path d="M180 1145 l0 -55 55 0 54 0 3 -57 3 -58 173 -3 172 -2 0 54 c0 67 3
66 -192 66 l-148 0 0 39 c0 65 -6 71 -66 71 l-54 0 0 -55z"/>
<path d="M2579 1196 c-2 -2 -2 -27 -1 -55 l4 -51 54 0 54 0 0 55 0 55 -53 0
c-30 0 -56 -2 -58 -4z"/>
<path d="M70 1030 l0 -60 55 0 55 0 0 55 c0 37 -4 55 -12 56 -7 1 -32 3 -55 5
l-43 4 0 -60z"/>
<path d="M77 853 c-4 -3 -7 -183 -7 -400 l0 -393 394 0 394 0 7 67 c4 36 4
216 0 400 l-8 333 -387 0 c-213 0 -390 -3 -393 -7z m673 -398 l0 -285 -285 0
-285 0 0 285 0 285 285 0 285 0 0 -285z"/>
<path d="M299 490 c-1 -77 -2 -152 -3 -167 l-1 -28 173 -3 172 -2 -2 167 -3
168 -167 3 -168 2 -1 -140z"/>
<path d="M1787 514 c-4 -4 -7 -31 -7 -61 l0 -53 55 0 56 0 -3 57 -3 58 -45 3
c-25 2 -49 0 -53 -4z"/>
<path d="M2008 289 c-2 -61 -1 -113 1 -115 2 -2 53 -4 113 -4 l108 0 0 60 0
61 -52 -3 -53 -3 -3 58 -3 57 -54 0 -54 0 -3 -111z"/>
<path d="M2350 232 l0 -61 -57 -3 -58 -3 -3 -52 -3 -53 60 0 61 0 0 55 0 55
55 0 55 0 0 55 c0 51 -2 55 -24 55 -13 0 -38 3 -55 6 l-31 7 0 -61z"/>
</g>
</svg>
